<svg width="218" height="218" viewBox="0 0 218 218" fill="none" xmlns="http://www.w3.org/2000/svg">
<g filter="url(#filter0_d_1_16)">
<path d="M108.91 4.5C163.941 4.5 208.591 49.3411 208.591 104.702C208.59 160.063 163.941 204.903 108.91 204.903C53.879 204.903 9.22946 160.063 9.2292 104.702C9.2292 49.3411 53.8789 4.50005 108.91 4.5Z" stroke="black" stroke-width="9" shape-rendering="crispEdges"/>
</g>
<path d="M106 205.236L106 4.16724" stroke="black" stroke-width="10"/>
<path d="M9.19586 205.254L9.49521 4.16721" stroke="black" stroke-width="10"/>
<path d="M104.222 200.197L12.0236 8.34596" stroke="black" stroke-width="12"/>
<path d="M4.20836 5.20905L107.868 5.20905" stroke="black" stroke-width="10"/>
<path d="M4 204.194L105.055 204.194" stroke="black" stroke-width="10"/>
<path d="M98.4189 13.9495C98.3122 13.9495 97.697 13.9495 97.2484 13.6827C95.1001 12.4054 99.7649 11.5792 99.887 11.4042C100.217 10.9314 98.6631 11.7393 97.7524 11.8609C95.8451 12.1158 94.672 11.6593 94.9675 11.6322C95.8512 11.5512 96.6922 12.331 97.0434 12.6415C97.1228 12.7116 97.2047 12.7627 97.2593 12.8302C97.3138 12.8977 97.3405 12.9778 97.3143 13.0457C97.1731 13.4104 96.5887 13.5711 96.0091 13.5461C95.7507 13.5349 95.8595 13.061 95.7387 12.9131C95.6781 12.8389 95.5911 12.7918 95.5366 12.8177C95.482 12.8436 95.4553 12.9503 95.4683 13.0719C95.5215 13.5729 95.9113 13.9204 96.4351 14.2179C97.6365 14.9001 98.2007 14.8904 98.5794 15.255C98.9723 15.6333 99.5733 16.4765 99.9003 17.0602C100.208 17.6085 100.304 18.0707 100.614 18.3007C100.696 18.3621 100.815 18.3682 100.883 18.3419C101.666 18.0411 100.899 15.8395 100.697 15.2583C100.555 14.8528 100.548 14.517 100.534 13.6968C100.524 13.0849 100.708 12.2841 100.763 11.768C100.772 11.6872 100.763 11.6067 100.723 11.5521C100.683 11.4976 100.603 11.4709 100.509 11.4705C100.414 11.4701 100.307 11.4968 100.226 11.5505C99.7896 11.8377 99.6057 12.7336 99.5907 13.3411C99.5876 13.4699 99.7108 13.5436 99.7387 13.5449C99.7665 13.5461 99.7399 13.466 99.6861 13.4115C99.6324 13.3569 99.5523 13.3302 99.4711 13.3298C99.3898 13.3294 99.3098 13.3561 99.2552 13.4232C99.1342 13.572 99.1465 14.0271 99.1865 14.5655C99.2122 14.911 99.4691 15.0537 99.6437 15.1479C99.7343 15.1968 99.845 15.2154 99.94 15.2158C100.035 15.2162 100.115 15.1896 100.17 15.1358C100.281 15.0259 100.278 14.6795 100.252 14.2757C100.225 14.112 100.172 14.0319 100.144 14.1241C100.117 14.2162 100.117 14.483 100.117 14.7579" stroke="black" stroke-width="2" stroke-linecap="round"/>
<path d="M96.4306 10.3074C94.8848 10.3074 92.8865 10.3074 93.2344 10.2808C94.8639 10.1463 97.2325 10.2526 97.6117 10.441C97.5078 10.4684 97.1359 10.4684 96.4306 10.7904" stroke="white" stroke-width="2" stroke-linecap="round"/>
<path d="M95.7869 9.66318C95.6806 9.66318 95.2007 9.66318 94.9817 9.66318C92.6235 9.66318 99.0527 9.50214 100.239 9.6358C100.456 9.66025 100.615 9.66318 100.75 9.74289C100.885 9.8226 100.992 9.98203 100.887 10.0907C99.7628 10.3073 96.5631 10.7324 94.8231 11.1117C94.6612 11.1656 94.5018 11.2188 94.3376 11.2735" stroke="white" stroke-width="2" stroke-linecap="round"/>
<path d="M100.296 13.2053C100.243 12.9928 100.19 12.7803 100.136 12.5115C100.082 12.2426 100.029 11.9239 99.975 11.68C99.9211 11.4361 99.8679 11.2768 99.8132 10.9516" stroke="black" stroke-width="2" stroke-linecap="round"/>
<path d="M99.6515 11.2733C99.7046 11.5938 99.8125 13.246 99.8125 14.3821C99.8125 18.6146 99.0653 8.01074 98.7658 7.22006C98.184 5.68437 99.8109 10.0913 100.185 10.2258C101.063 10.541 101.635 9.66457 102.037 9.50273C102.213 9.43203 102.386 9.65974 102.468 9.90129C102.55 10.1428 102.55 10.4617 102.55 10.2805C102.55 9.40852 102.497 8.43104 102.31 7.92217C102.215 7.66169 101.964 7.46644 101.775 7.38351C101.585 7.30057 101.426 7.35372 101.371 7.54052C101.086 8.49823 101.637 9.07035 101.744 9.25957C101.896 9.52784 101.853 8.48418 101.693 8.18868C101.628 8.06961 101.426 8.15889 101.291 8.29255C100.718 8.8585 100.887 9.50031 100.753 9.63558C100.694 9.69538 100.566 9.39886 100.432 9.31593C99.2439 8.58337 98.5242 12.56 98.4445 12.403C97.9289 11.3874 97.988 10.3087 97.8277 10.1469C97.268 9.5815 96.8623 12.0173 96.4855 14.0842C96.4116 14.4894 96.4308 14.6518 96.4308 14.6542C96.4308 15.2508 96.0024 12.8901 95.6272 11.8136C95.5476 11.5851 95.413 11.4376 95.2786 11.3023C95.1441 11.167 94.9847 11.0607 94.876 11.1654C94.1265 11.8872 94.6062 12.882 94.5257 12.8845C92.8616 12.9344 93.6449 8.87067 92.8904 8.02604C92.1839 7.23509 92.0828 10.2507 91.9765 10.4142C91.8961 10.5378 91.6577 9.83366 91.6545 9.5607C91.6512 9.28775 91.8638 9.23461 92.1062 9.28694C93.4675 9.58091 94.6014 10.8417 95.3253 11.1372C95.6123 11.2544 95.7834 11.167 95.9187 11.0334C96.5805 10.3795 96.8591 9.39886 97.2078 8.88516C97.5692 8.35263 97.5033 10.1428 97.5846 10.6284C97.6137 10.802 97.719 9.61626 97.6393 8.62267C97.6143 8.31061 97.4002 8.42621 97.2649 8.61382C96.6395 9.48121 96.3245 10.1976 96.0837 10.5462C95.975 10.7037 95.7898 10.7355 95.6546 10.6034C94.9373 9.90324 95.1972 9.12832 94.9831 8.88596C94.9089 8.80209 94.7689 9.0156 94.7141 9.31029C94.6594 9.60499 94.6594 10.0301 94.7657 10.0897C96.0829 10.8282 96.1618 7.1959 96.1626 6.95354C96.1628 6.89332 95.9509 7.08318 95.8688 7.24502C95.7866 7.40686 95.7866 7.56628 95.8929 7.72812C96.6433 8.31993 97.2875 8.58885 97.6893 8.66937C97.8785 8.69675 98.0379 8.69675 98.2022 8.69675" stroke="black" stroke-width="2" stroke-linecap="round"/>
<path d="M77 10C89.9503 10.013 99.5006 24.6018 101.751 32.2432C104.002 39.8845 104 51 104 51" stroke="black" stroke-width="6"/>
<path d="M97.0383 15.8114C97.0322 15.7945 97.0262 15.7775 97.0327 15.7846C97.1491 15.9116 97.4617 16.133 97.7158 16.4146C97.8446 16.5573 98.0256 16.8473 98.3295 17.377C98.6334 17.9068 99.0394 18.68 99.401 19.5599C99.7625 20.4398 100.067 21.403 100.268 22.0734C100.469 22.7438 100.557 23.0924 100.611 23.3276C100.665 23.5628 100.682 23.674 100.696 23.7422C100.709 23.8103 100.718 23.8319 100.675 23.2012C100.633 22.5704 100.538 21.2866 100.482 20.6099C100.427 19.9332 100.412 19.9024 100.363 19.6624C100.315 19.4225 100.232 18.9742 100.17 18.7205C100.108 18.4668 100.069 18.4212 99.4359 17.8805C98.803 17.3399 97.5773 16.3055 96.933 15.7464C96.2887 15.1872 96.2629 15.1346 96.1117 15.0219C95.9605 14.9092 95.6847 14.7379 95.4316 14.5421C95.1786 14.3462 94.9565 14.1309 94.8106 13.9806C94.5946 13.7584 94.5092 13.6505 94.2365 13.5225C93.9939 13.4086 93.5281 13.2208 93.2414 13.0782C92.8423 12.8797 92.7418 12.7085 92.713 12.6086C92.6999 12.5632 92.6955 12.5271 92.3676 12.3051C92.0398 12.0831 91.3901 11.6759 90.9085 11.3963C90.4268 11.1168 90.1329 10.9772 89.9481 10.8948C89.7633 10.8125 89.6966 10.7916 89.4534 10.7486C89.2103 10.7055 88.7929 10.6409 88.5809 10.596C88.3689 10.5512 88.375 10.528 88.3812 10.5041" stroke="black" stroke-width="2" stroke-linecap="round"/>
<path d="M98.2691 18.621C98.2652 18.6248 98.0151 17.8524 97.6165 16.6273C97.3421 15.7838 96.9968 15.4084 96.758 15.2802C96.6061 15.1986 96.4401 15.1756 96.1054 14.9762C95.3346 14.5169 94.7787 14.1334 94.5837 14.0607C94.1093 13.8838 93.8239 13.7737 93.5828 13.6497C93.2417 13.4743 92.9375 13.0642 91.8593 12.5758C91.4458 12.3885 90.9827 12.0703 90.5367 11.8366C89.2004 11.2511 89.0122 11.1921 88.931 11.1457C88.8915 11.1202 88.8556 11.0907 88.8186 11.0604" stroke="black" stroke-width="2" stroke-linecap="round"/>
<path d="M95.3821 15.7608C95.4327 15.7777 95.6241 15.8816 95.9291 16.1676C96.4903 16.8322 96.7352 17.0745 96.9918 17.2494C97.1145 17.3432 97.2218 17.4472 97.3324 17.5544" stroke="black" stroke-width="2" stroke-linecap="round"/>
<path d="M101.827 26.8601C101.826 26.8601 101.788 26.8601 101.718 26.8629C101.685 26.8656 101.658 26.871 101.636 26.8738C101.613 26.8767 101.597 26.8767 101.581 26.8768" stroke="black" stroke-width="2" stroke-linecap="round"/>
<path d="M86.0499 10.7126C86.0499 10.7119 86.0499 10.7786 86.0503 10.8903C86.0507 10.9348 86.0514 10.9546 86.0525 10.9702C86.0536 10.9858 86.055 10.9965 86.0602 10.9945" stroke="black" stroke-width="2" stroke-linecap="round"/>
<path d="M101.934 26.7575C101.808 26.7575 101.758 26.7499 101.69 26.7419C101.592 26.7304 101.541 26.7189 101.51 26.707C101.527 26.706 101.551 26.7053 101.568 26.7046C101.576 26.7047 101.583 26.7057 101.6 26.7094" stroke="black" stroke-width="2" stroke-linecap="round"/>
<path d="M101.561 26.7159C101.56 26.7159 101.559 26.7159 101.555 26.7159C101.551 26.7159 101.544 26.7159 101.544 26.7165C101.544 26.7171 101.551 26.7184 101.559 26.7196" stroke="black" stroke-width="2" stroke-linecap="round"/>
<path d="M102.1 26.5024C102.031 26.5024 101.864 26.5065 101.821 26.5092C101.753 26.513 101.678 26.5178 101.637 26.52C101.605 26.5207 101.552 26.5207 101.498 26.5207" stroke="black" stroke-width="2" stroke-linecap="round"/>
<path d="M102.107 27.1911C102.019 27.1911 101.823 27.1896 101.77 27.1863C101.749 27.1837 101.683 27.1809 101.605 27.1791C101.581 27.1785 101.59 27.1785 101.598 27.1785" stroke="black" stroke-width="2" stroke-linecap="round"/>
<path d="M61.5332 104.392C86.5594 103.375 105.5 84.8923 105.5 64.5" stroke="black" stroke-width="9"/>
<path d="M57.3405 105.743C56.9238 105.743 27.9963 105.743 13.5846 105.743" stroke="black" stroke-width="9"/>
<path d="M94.9619 15.1281C95.3398 15.1089 96.2371 15.1778 96.3378 15.2378C96.3085 15.2281 96.116 15.137 95.6762 14.6667C95.2364 14.1963 94.5552 13.3495 93.8534 12.4771" stroke="black" stroke-width="2" stroke-linecap="round"/>
<path d="M82.5536 11.8392C82.5501 11.8392 82.5195 11.876 82.4559 11.9362C82.3353 12.0505 82.1243 11.9624 81.8725 11.9418C81.7707 11.9335 81.67 11.9177 81.6032 11.9197C81.5948 11.9253 81.6381 11.9401 81.6384 11.9438C81.6387 11.9474 81.5947 11.9395 81.5528 11.8764" stroke="black" stroke-width="2" stroke-linecap="round"/>
<path d="M102.318 36.9777C102.315 36.9777 102.312 36.9777 102.291 36.9843C102.269 36.9908 102.23 37.0039 102.159 37.0123C102.088 37.0207 101.988 37.0242 101.925 37.032" stroke="black" stroke-width="2" stroke-linecap="round"/>
<defs>
<filter id="filter0_d_1_16" x="0.729198" y="0" width="216.362" height="217.403" filterUnits="userSpaceOnUse" color-interpolation-filters="sRGB">
<feFlood flood-opacity="0" result="BackgroundImageFix"/>
<feColorMatrix in="SourceAlpha" type="matrix" values="0 0 0 0 0 0 0 0 0 0 0 0 0 0 0 0 0 0 127 0" result="hardAlpha"/>
<feOffset dy="4"/>
<feGaussianBlur stdDeviation="2"/>
<feComposite in2="hardAlpha" operator="out"/>
<feColorMatrix type="matrix" values="0 0 0 0 0 0 0 0 0 0 0 0 0 0 0 0 0 0 0.25 0"/>
<feBlend mode="normal" in2="BackgroundImageFix" result="effect1_dropShadow_1_16"/>
<feBlend mode="normal" in="SourceGraphic" in2="effect1_dropShadow_1_16" result="shape"/>
</filter>
</defs>
</svg>
